# xmcd
#
# Track frame offsets:
# 150
# 21902
# 42870
# 62300
# 87060
# 111222
# 132596
# 152255
# 174617
#
# Disc length: 2574 seconds
#
#
# Revision: 0
# Processed by: cddbd v1.5.2PL0 Copyright (c) Steve Scherf et al.
# Submitted via: FreeRIP 2.96 
#
DISCID=670a0c09
DTITLE=Hariharan and Chitra - Malhar
DYEAR=2007
DGENRE=Blues
TTITLE0=Ghazal Maina
TTITLE1=Cheruthooval
TTITLE2=Mayilpeeli
TTITLE3=Arabikkadhayile
TTITLE4=Poonkinavile
TTITLE5=Meghamay
TTITLE6=Ghazal Maina
TTITLE7=Paadathe (unpl)
TTITLE8=Viraha Veene
EXTD=
EXTT0=
EXTT1=
EXTT2=
EXTT3=
EXTT4=
EXTT5=
EXTT6=
EXTT7=
EXTT8=
PLAYORDER=
